<svg width="1459" height="1475" viewBox="0 0 1459 1475" fill="none" xmlns="http://www.w3.org/2000/svg">
<path d="M216.864 451.88C216.864 295.089 341.161 168 494.465 168C647.788 168 772.085 295.089 772.085 451.88C772.085 608.671 647.788 735.77 494.465 735.77C341.161 735.77 216.864 608.671 216.864 451.88Z" fill="black"/>
<mask id="mask0_265_2" style="mask-type:luminance" maskUnits="userSpaceOnUse" x="12" y="723" width="964" height="591">
<path d="M12 723.357H975.725V1313.71H12V723.357Z" fill="white"/>
</mask>
<g mask="url(#mask0_265_2)">
<path d="M971.596 1158.49L932.015 1002.45C899.739 875.31 812.661 774.454 700.726 723.542C643.764 768.834 572.231 795.888 494.466 795.888C416.719 795.888 345.187 768.834 288.215 723.542C176.271 774.454 89.1928 875.31 56.9354 1002.45L17.3642 1158.49C-2.57919 1237.05 55.4153 1313.69 134.797 1313.69H854.163C933.535 1313.69 991.53 1237.05 971.596 1158.49Z" fill="black"/>
</g>
<path d="M1277.74 415.522C1277.74 290.036 1178.24 188.3 1055.53 188.3C932.809 188.3 833.321 290.036 833.321 415.522C833.321 541.017 932.809 642.753 1055.53 642.753C1178.24 642.753 1277.74 541.017 1277.74 415.522Z" fill="black"/>
<mask id="mask1_265_2" style="mask-type:luminance" maskUnits="userSpaceOnUse" x="782" y="630" width="659" height="477">
<path d="M782.469 630.868H1440.27V1106.18H782.469V630.868Z" fill="white"/>
</mask>
<g mask="url(#mask1_265_2)">
<path d="M984.273 1000.36C953.421 878.732 879.814 777.631 782.507 712.059C812.833 678.584 849.536 651.559 890.446 632.959C936.04 669.22 993.279 690.879 1055.53 690.879C1117.77 690.879 1175.01 669.22 1220.62 632.959C1310.21 673.697 1379.91 754.428 1405.73 856.203L1437.44 981.102C1453.38 1043.98 1406.96 1105.35 1343.42 1105.35H1010.93L984.273 1000.36Z" fill="black"/>
</g>
</svg>
