<svg width="1080" height="1080" viewBox="0 0 1080 1080" fill="none" xmlns="http://www.w3.org/2000/svg">
<g clip-path="url(#clip0_157_15)">
<path d="M585.828 633.755V610.052C585.828 581.146 562.401 557.724 533.521 557.724C504.62 557.724 481.193 581.146 481.193 610.052V633.755C481.193 662.656 504.62 686.083 533.521 686.083C562.38 686.083 585.828 662.656 585.828 633.755Z" fill="black"/>
<mask id="mask0_157_15" style="mask-type:luminance" maskUnits="userSpaceOnUse" x="21" y="648" width="1026" height="325">
<path d="M21.3335 648H1046.67V972.198H21.3335V648Z" fill="white"/>
</mask>
<g mask="url(#mask0_157_15)">
<path d="M621.714 662.703C610.12 700.651 575.188 728.516 533.521 728.516C491.833 728.516 456.901 700.651 445.307 662.703H84.9481C62.2033 662.703 40.7085 657.411 21.4272 648.24V887.526C21.4272 934.25 59.6512 972.474 106.375 972.474H960.625C1007.35 972.474 1045.57 934.25 1045.57 887.526V648.26C1026.27 657.432 1004.8 662.724 982.052 662.724H621.714V662.703Z" fill="black"/>
</g>
<mask id="mask1_157_15" style="mask-type:luminance" maskUnits="userSpaceOnUse" x="0" y="97" width="1067" height="503">
<path d="M0 97.1979H1067V600H0V97.1979Z" fill="white"/>
</mask>
<g mask="url(#mask1_157_15)">
<path d="M978.505 233.016H774.62C762.302 156.005 695.599 96.9219 615.177 96.9219H451.802C371.38 96.9219 304.698 156.005 292.359 233.016H88.4948C39.8177 233.016 0 271.245 0 317.969V514.057C0 560.969 38.0365 599.01 84.9479 599.01H441.292C442.5 574.562 452.995 552.604 469.578 536.719C470.089 536.229 470.682 535.849 471.214 535.38C474.885 532.005 478.708 528.818 482.896 526.057C484.38 525.057 486.078 524.38 487.63 523.484C491.068 521.51 494.469 519.453 498.182 517.922C501.094 516.714 504.234 516.01 507.297 515.099C509.927 514.312 512.432 513.271 515.172 512.719C521.099 511.51 527.234 510.87 533.5 510.87C539.786 510.87 545.901 511.531 551.828 512.719C554.547 513.271 557.052 514.312 559.682 515.099C562.745 516.01 565.885 516.714 568.797 517.943C572.49 519.474 575.865 521.51 579.307 523.484C580.88 524.401 582.578 525.078 584.083 526.078C588.271 528.818 592.068 532.005 595.745 535.38C596.276 535.87 596.891 536.25 597.401 536.76C614.005 552.646 624.474 574.604 625.688 599.052H982.031C1028.94 599.052 1066.98 561.016 1066.98 514.099V318.01C1067 271.245 1027.18 233.016 978.505 233.016ZM374.141 233.016C384.974 200.286 415.49 176.438 451.802 176.438H615.177C651.49 176.438 682.005 200.286 692.839 233.016H374.141Z" fill="black"/>
</g>
</g>
<defs>
<clipPath id="clip0_157_15">
<rect width="1080" height="1080" fill="white"/>
</clipPath>
</defs>
</svg>
