<svg width="1080" height="1080" viewBox="0 0 1080 1080" fill="none" xmlns="http://www.w3.org/2000/svg">
<mask id="mask0_156_3" style="mask-type:luminance" maskUnits="userSpaceOnUse" x="31" y="31" width="1019" height="1019">
<path d="M31.0986 31.0989H1049.1V1049.1H31.0986V31.0989Z" fill="white"/>
</mask>
<g mask="url(#mask0_156_3)">
<path d="M611.864 -387.63C469.046 -396.156 330.947 -373.729 200.848 -321.136C188.385 -316.287 180.52 -304.089 180.52 -290.188C180.52 -284.417 181.697 -279.172 184.192 -274.448C192.453 -258.844 210.682 -252.287 226.812 -258.844C347.734 -307.891 476.26 -328.615 609.244 -320.349C1037.96 -293.333 1387.61 49.2238 1423.02 476.505C1444.26 733.297 1352.46 984.969 1171.21 1166.87C989.833 1348.77 738.291 1441.23 481.635 1420.91C67.338 1387.59 -275.355 1050.8 -315.615 637.687C-337.646 409.489 -271.813 186.016 -130.172 8.17694C-124.271 0.702972 -115.355 -3.89078 -105.912 -4.41162C-95.9432 -4.93765 -87.0266 -1.396 -80.2037 5.42172L-41.5161 44.1092L-17.7766 -155.104L-217.126 -129.922L-175.813 -90.5783C-163.615 -78.3804 -162.698 -58.9741 -173.714 -45.5939C-327.157 141.422 -402.042 378.276 -384.469 621.557C-351.417 1076.24 15.9265 1448.45 470.093 1487.27C739.604 1510.08 1005.96 1417.49 1200.72 1232.44C1395.34 1047.4 1501.84 787.198 1492.66 518.344C1476.4 39.5207 1089.5 -358.516 611.864 -387.63Z" fill="#040606"/>
</g>
<path d="M544.062 115.589L204.125 214.604L553.109 314.406L902.094 214.604L562.161 115.589C556.26 113.88 549.964 113.88 544.062 115.589Z" fill="#040606"/>
<path d="M413.177 570.672C403.078 570.672 392.979 569.099 383.011 566.214L116.651 487V896.182L519.537 1011.07V487.13L504.979 515.328C487.011 549.948 451.209 570.542 413.177 570.672Z" fill="#040606"/>
<mask id="mask1_156_3" style="mask-type:luminance" maskUnits="userSpaceOnUse" x="601" y="254" width="449" height="250">
<path d="M601.333 254.667H1049.1V504H601.333V254.667Z" fill="white"/>
</mask>
<g mask="url(#mask1_156_3)">
<path d="M1053.18 386.932C1056.98 379.589 1057.77 371.328 1055.41 363.589L1004.79 255.13L601.766 370.276L660.917 484.375C668.651 499.458 687.146 506.802 704.062 501.818L1031.67 404.505C1041.11 401.62 1048.85 395.458 1053.18 386.932Z" fill="#040606"/>
</g>
<path d="M601.245 515.328L586.683 487.13V1011.2L989.443 896.182L989.573 487L723.209 566.214C713.245 569.099 703.146 570.542 693.047 570.542C655.011 570.542 619.209 549.948 601.245 515.328Z" fill="#040606"/>
<path d="M50.8126 363.588C48.4532 371.328 49.2397 379.588 53.0418 386.932C57.3699 395.458 65.1095 401.62 74.5522 404.505L402.162 501.818C418.948 506.932 437.568 499.328 445.307 484.505L504.453 370.276L101.438 255.13L50.8126 363.588Z" fill="#040606"/>
</svg>
