<svg viewBox="0 0 20 20" fill="none" xmlns="http://www.w3.org/2000/svg">
          <path
            d="M14.4712 8.6639V7.7634L15.6012 6.77461C15.8095 6.591 15.9462 6.33967 15.9871 6.06503C16.0281 5.79039 15.9706 5.51013 15.8249 5.27376L14.4358 2.9195C14.3326 2.74073 14.1842 2.59225 14.0055 2.48894C13.8268 2.38564 13.6241 2.33115 13.4176 2.33094C13.2897 2.32996 13.1625 2.34984 13.0409 2.38979L11.6107 2.87242C11.3638 2.70833 11.1062 2.56086 10.8397 2.43099L10.5395 0.947807C10.4857 0.676834 10.3383 0.433424 10.1231 0.260187C9.90791 0.0869497 9.63863 -0.00507708 9.36241 0.000216257H6.60793C6.33171 -0.00507708 6.06243 0.0869497 5.84723 0.260187C5.63203 0.433424 5.48462 0.676834 5.43079 0.947807L5.13063 2.43099C4.8622 2.56083 4.60266 2.70829 4.35372 2.87242L2.95293 2.36625C2.8301 2.33425 2.70289 2.32232 2.57625 2.33094C2.36983 2.33115 2.16709 2.38564 1.98837 2.48894C1.80965 2.59225 1.66124 2.74073 1.55803 2.9195L0.169016 5.27376C0.0316375 5.50977 -0.0194119 5.7862 0.0246114 6.05571C0.0686347 6.32522 0.204991 6.57104 0.410328 6.75106L1.52272 7.76928V8.66979L0.410328 9.65858C0.199191 9.83986 0.0591049 10.0901 0.0149291 10.3648C-0.0292468 10.6396 0.0253451 10.9211 0.169016 11.1594L1.55803 13.5137C1.66124 13.6925 1.80965 13.8409 1.98837 13.9442C2.16709 14.0475 2.36983 14.102 2.57625 14.1022C2.70417 14.1032 2.8314 14.0833 2.95293 14.0434L4.38315 13.5608C4.63007 13.7249 4.88765 13.8723 5.15417 14.0022L5.45434 15.4854C5.50816 15.7564 5.65557 15.9998 5.87077 16.173C6.08598 16.3462 6.35525 16.4383 6.63147 16.433H9.4095C9.68571 16.4383 9.95499 16.3462 10.1702 16.173C10.3854 15.9998 10.5328 15.7564 10.5866 15.4854L10.8868 14.0022C11.1552 13.8724 11.4148 13.7249 11.6637 13.5608L13.088 14.0434C13.2096 14.0833 13.3368 14.1032 13.4647 14.1022C13.6711 14.102 13.8739 14.0475 14.0526 13.9442C14.2313 13.8409 14.3797 13.6925 14.4829 13.5137L15.8249 11.1594C15.9622 10.9234 16.0133 10.647 15.9693 10.3775C15.9252 10.108 15.7889 9.86215 15.5836 9.68212L14.4712 8.6639ZM13.4176 12.9251L11.3989 12.2424C10.9263 12.6427 10.3862 12.9556 9.80384 13.1664L9.38596 15.2794H6.60793L6.19004 13.19C5.61232 12.9731 5.07513 12.6608 4.60092 12.2659L2.57625 12.9251L1.18723 10.5709L2.78813 9.1583C2.67931 8.54905 2.67931 7.92534 2.78813 7.31609L1.18723 5.86233L2.57625 3.50807L4.59503 4.1908C5.06761 3.79052 5.60772 3.47761 6.19004 3.26676L6.60793 1.1538H9.38596L9.80384 3.24321C10.3816 3.46005 10.9187 3.77242 11.393 4.16726L13.4176 3.50807L14.8066 5.86233L13.2057 7.27489C13.3146 7.88414 13.3146 8.50785 13.2057 9.1171L14.8066 10.5709L13.4176 12.9251Z"
            fill="black"
          />
          <path
            d="M7.99694 11.7481C7.2985 11.7481 6.61574 11.541 6.035 11.1529C5.45427 10.7649 5.00164 10.2134 4.73436 9.5681C4.46708 8.92283 4.39714 8.21278 4.5334 7.52776C4.66966 6.84273 5.00599 6.2135 5.49987 5.71963C5.99374 5.22575 6.62298 4.88942 7.308 4.75316C7.99302 4.6169 8.70307 4.68683 9.34835 4.95412C9.99363 5.2214 10.5452 5.67403 10.9332 6.25476C11.3212 6.8355 11.5283 7.51825 11.5283 8.2167C11.5331 8.68176 11.4449 9.14309 11.2691 9.57367C11.0933 10.0043 10.8334 10.3954 10.5045 10.7243C10.1757 11.0532 9.7845 11.3131 9.35391 11.4889C8.92333 11.6647 8.462 11.7528 7.99694 11.7481ZM7.99694 5.86244C7.68579 5.85519 7.37641 5.91113 7.0875 6.02688C6.79859 6.14262 6.53616 6.31577 6.31609 6.53584C6.09601 6.75592 5.92287 7.01835 5.80712 7.30726C5.69137 7.59616 5.63543 7.90555 5.64268 8.2167C5.63543 8.52785 5.69137 8.83723 5.80712 9.12614C5.92287 9.41505 6.09601 9.67748 6.31609 9.89755C6.53616 10.1176 6.79859 10.2908 7.0875 10.4065C7.37641 10.5223 7.68579 10.5782 7.99694 10.571C8.30809 10.5782 8.61747 10.5223 8.90638 10.4065C9.19529 10.2908 9.45772 10.1176 9.6778 9.89755C9.89787 9.67748 10.071 9.41505 10.1868 9.12614C10.3025 8.83723 10.3585 8.52785 10.3512 8.2167C10.3585 7.90555 10.3025 7.59616 10.1868 7.30726C10.071 7.01835 9.89787 6.75592 9.6778 6.53584C9.45772 6.31577 9.19529 6.14262 8.90638 6.02688C8.61747 5.91113 8.30809 5.85519 7.99694 5.86244Z"
            fill="black"
          />
        </svg>