<svg width="1080" height="1080" viewBox="0 0 1080 1080" fill="none" xmlns="http://www.w3.org/2000/svg">
<mask id="mask0_203_32" style="mask-type:luminance" maskUnits="userSpaceOnUse" x="23" y="106" width="949" height="132">
<path d="M23.1455 106.667H972V237.333H23.1455V106.667Z" fill="white"/>
</mask>
<g mask="url(#mask0_203_32)">
<path d="M970.974 237.031V193.953C970.974 146.568 932.187 107.776 884.817 107.776H109.317C61.932 107.776 23.1455 146.568 23.1455 193.953V237.031H970.974Z" fill="black"/>
</g>
<mask id="mask1_203_32" style="mask-type:luminance" maskUnits="userSpaceOnUse" x="23" y="365" width="949" height="433">
<path d="M23.1455 365.333H972V797.333H23.1455V365.333Z" fill="white"/>
</mask>
<g mask="url(#mask1_203_32)">
<path d="M23.1455 366.286V710.969C23.1455 758.344 61.932 797.13 109.317 797.13H540.146V754.052C540.146 587.776 675.458 452.463 841.724 452.463H970.974V366.286H23.1455ZM238.567 667.88H109.317V581.719H238.567V667.88ZM453.974 667.88H324.724V581.719H453.974V667.88Z" fill="black"/>
</g>
<mask id="mask2_203_32" style="mask-type:luminance" maskUnits="userSpaceOnUse" x="625" y="537" width="433" height="434">
<path d="M625.333 537.333H1057.15V970.667H625.333V537.333Z" fill="white"/>
</mask>
<g mask="url(#mask2_203_32)">
<path d="M841.724 538.625C722.786 538.625 626.317 635.109 626.317 754.052C626.317 872.995 722.786 969.469 841.724 969.469C960.672 969.469 1057.15 872.995 1057.15 754.052C1057.15 635.109 960.672 538.625 841.724 538.625ZM826.5 849.26L712.265 734.984L757.958 689.297L826.5 757.839L925.531 658.844L971.218 704.536L826.5 849.26Z" fill="black"/>
</g>
</svg>
