<svg width="1310" height="1193" viewBox="0 0 1310 1193" fill="none" xmlns="http://www.w3.org/2000/svg">
<mask id="mask0_260_53" style="mask-type:luminance" maskUnits="userSpaceOnUse" x="13" y="119" width="1284" height="644">
<path d="M13.1465 119.3H1296.46V762.931H13.1465V119.3Z" fill="white"/>
</mask>
<g mask="url(#mask0_260_53)">
<path d="M654.829 119.34C302.009 119.34 13.1592 378.721 13.1592 699.328C13.1592 719.988 14.031 740.907 16.2737 762.033H312.597V645.184H145.625C177.212 414.627 393.05 236.206 654.829 236.206C916.602 236.206 1132.44 414.65 1164.03 645.184H997.062V762.033H1293.38C1295.63 740.907 1296.49 719.988 1296.49 699.328C1296.49 378.698 1007.65 119.34 654.829 119.34Z" fill="black"/>
</g>
<path d="M590.675 382.265C590.675 383.859 590.587 385.447 590.416 387.035C590.246 388.622 589.987 390.199 589.646 391.764C589.304 393.329 588.881 394.871 588.369 396.395C587.864 397.926 587.276 399.421 586.607 400.894C585.931 402.373 585.185 403.811 584.358 405.215C583.536 406.624 582.633 407.988 581.66 409.317C580.687 410.64 579.645 411.923 578.533 413.154C577.427 414.386 576.252 415.565 575.014 416.693C573.776 417.82 572.475 418.89 571.123 419.903C569.771 420.916 568.362 421.865 566.909 422.751C565.449 423.637 563.952 424.454 562.404 425.208C560.863 425.955 559.284 426.64 557.66 427.25C556.043 427.86 554.4 428.395 552.72 428.861C551.045 429.321 549.346 429.707 547.634 430.017C545.916 430.328 544.185 430.564 542.441 430.719C540.697 430.875 538.947 430.955 537.197 430.955C535.448 430.955 533.698 430.875 531.96 430.719C530.217 430.564 528.486 430.328 526.767 430.017C525.049 429.707 523.349 429.321 521.675 428.861C520.001 428.395 518.352 427.86 516.735 427.25C515.118 426.64 513.532 425.955 511.991 425.208C510.443 424.454 508.946 423.637 507.486 422.751C506.033 421.865 504.631 420.916 503.272 419.903C501.92 418.89 500.625 417.82 499.387 416.693C498.149 415.565 496.974 414.386 495.862 413.154C494.75 411.923 493.708 410.64 492.735 409.317C491.762 407.988 490.865 406.624 490.037 405.215C489.21 403.811 488.464 402.373 487.795 400.894C487.125 399.421 486.531 397.926 486.026 396.395C485.514 394.871 485.091 393.329 484.749 391.764C484.408 390.199 484.149 388.622 483.979 387.035C483.808 385.447 483.72 383.859 483.72 382.265C483.72 380.671 483.808 379.078 483.979 377.49C484.149 375.902 484.408 374.326 484.749 372.766C485.091 371.202 485.514 369.654 486.026 368.129C486.531 366.605 487.125 365.103 487.795 363.63C488.464 362.157 489.21 360.719 490.037 359.31C490.865 357.906 491.762 356.536 492.735 355.213C493.708 353.884 494.75 352.607 495.862 351.376C496.974 350.139 498.149 348.959 499.387 347.832C500.625 346.704 501.92 345.634 503.272 344.627C504.631 343.615 506.033 342.665 507.486 341.779C508.946 340.893 510.443 340.071 511.991 339.323C513.532 338.569 515.118 337.89 516.735 337.28C518.352 336.67 520.001 336.13 521.675 335.669C523.349 335.203 525.049 334.818 526.767 334.507C528.486 334.196 530.217 333.961 531.96 333.805C533.698 333.65 535.448 333.569 537.197 333.569C538.947 333.569 540.697 333.65 542.441 333.805C544.185 333.961 545.916 334.196 547.634 334.507C549.346 334.818 551.045 335.203 552.72 335.669C554.4 336.13 556.043 336.67 557.66 337.28C559.284 337.89 560.863 338.569 562.404 339.323C563.952 340.071 565.449 340.893 566.909 341.779C568.362 342.665 569.771 343.615 571.123 344.627C572.475 345.634 573.776 346.704 575.014 347.832C576.252 348.959 577.427 350.139 578.533 351.376C579.645 352.607 580.687 353.884 581.66 355.213C582.633 356.536 583.536 357.906 584.358 359.31C585.185 360.719 585.931 362.157 586.607 363.63C587.276 365.103 587.864 366.605 588.369 368.129C588.881 369.654 589.304 371.202 589.646 372.766C589.987 374.326 590.246 375.902 590.416 377.49C590.587 379.078 590.675 380.671 590.675 382.265Z" fill="black"/>
<path d="M419.546 479.645C419.546 481.244 419.464 482.832 419.287 484.42C419.116 486.008 418.864 487.585 418.516 489.144C418.175 490.709 417.752 492.256 417.246 493.781C416.735 495.306 416.147 496.807 415.477 498.28C414.808 499.753 414.056 501.191 413.235 502.601C412.407 504.004 411.51 505.374 410.537 506.697C409.564 508.026 408.522 509.303 407.41 510.534C406.298 511.771 405.123 512.951 403.885 514.078C402.647 515.206 401.351 516.276 399.993 517.289C398.641 518.296 397.239 519.245 395.779 520.131C394.326 521.017 392.823 521.84 391.281 522.588C389.734 523.341 388.154 524.02 386.537 524.63C384.92 525.24 383.271 525.781 381.597 526.241C379.916 526.707 378.223 527.092 376.505 527.403C374.786 527.714 373.055 527.95 371.312 528.105C369.568 528.26 367.824 528.341 366.068 528.341C364.318 528.341 362.575 528.26 360.831 528.105C359.087 527.95 357.356 527.714 355.638 527.403C353.92 527.092 352.226 526.707 350.546 526.241C348.872 525.781 347.223 525.24 345.606 524.63C343.988 524.02 342.409 523.341 340.861 522.588C339.32 521.84 337.816 521.017 336.363 520.131C334.904 519.245 333.501 518.296 332.143 517.289C330.791 516.276 329.496 515.206 328.258 514.078C327.02 512.951 325.845 511.771 324.733 510.534C323.621 509.303 322.578 508.026 321.605 506.697C320.633 505.374 319.735 504.004 318.908 502.601C318.087 501.191 317.335 499.753 316.665 498.28C315.996 496.807 315.408 495.306 314.896 493.781C314.391 492.256 313.961 490.709 313.62 489.144C313.279 487.585 313.026 486.008 312.849 484.42C312.679 482.832 312.597 481.244 312.597 479.645C312.597 478.051 312.679 476.464 312.849 474.876C313.026 473.288 313.279 471.711 313.62 470.146C313.961 468.582 314.391 467.04 314.896 465.515C315.408 463.985 315.996 462.489 316.665 461.016C317.335 459.537 318.087 458.099 318.908 456.695C319.735 455.286 320.633 453.922 321.605 452.593C322.578 451.27 323.621 449.993 324.733 448.756C325.845 447.525 327.02 446.345 328.258 445.217C329.496 444.09 330.791 443.02 332.143 442.007C333.501 440.995 334.904 440.045 336.363 439.159C337.816 438.273 339.32 437.456 340.861 436.703C342.409 435.955 343.988 435.27 345.606 434.66C347.223 434.05 348.872 433.515 350.546 433.049C352.226 432.589 353.92 432.204 355.638 431.893C357.356 431.582 359.087 431.346 360.831 431.191C362.575 431.036 364.318 430.955 366.068 430.955C367.824 430.955 369.568 431.036 371.312 431.191C373.055 431.346 374.786 431.582 376.505 431.893C378.223 432.204 379.916 432.589 381.597 433.049C383.271 433.515 384.92 434.05 386.537 434.66C388.154 435.27 389.734 435.955 391.281 436.703C392.823 437.456 394.326 438.273 395.779 439.159C397.239 440.045 398.641 440.995 399.993 442.007C401.351 443.02 402.647 444.09 403.885 445.217C405.123 446.345 406.298 447.525 407.41 448.756C408.522 449.993 409.564 451.27 410.537 452.593C411.51 453.922 412.407 455.286 413.235 456.695C414.056 458.099 414.808 459.537 415.477 461.016C416.147 462.489 416.735 463.985 417.246 465.515C417.752 467.04 418.175 468.582 418.516 470.146C418.864 471.711 419.116 473.288 419.287 474.876C419.464 476.464 419.546 478.051 419.546 479.645Z" fill="black"/>
<mask id="mask1_260_53" style="mask-type:luminance" maskUnits="userSpaceOnUse" x="483" y="469" width="451" height="547">
<path d="M483.568 469.836H933.173V1015.15H483.568V469.836Z" fill="white"/>
</mask>
<g mask="url(#mask1_260_53)">
<path d="M932.883 489.391C932.883 478.633 923.299 469.905 911.485 469.905C906.349 469.905 901.832 471.769 898.137 474.525L545.872 739.268C507.904 767.85 483.701 811.051 483.701 859.419C483.701 945.459 560.314 1015.22 654.805 1015.22C734.867 1015.22 801.889 965.067 820.57 897.437L931.859 493.925C932.264 492.429 932.883 490.991 932.883 489.368V489.391Z" fill="black"/>
</g>
</svg>
