<svg width="162" height="33" viewBox="0 0 162 33" fill="none" xmlns="http://www.w3.org/2000/svg">
<mask id="mask0_307_2" style="mask-type:luminance" maskUnits="userSpaceOnUse" x="129" y="1" width="32" height="32">
<path d="M129 1.65625H160.5V32.0312H129V1.65625Z" fill="white"/>
</mask>
<g mask="url(#mask0_307_2)">
<path d="M159.773 17.0137C159.773 25.4746 153.047 32.3301 144.75 32.3301C136.447 32.3301 129.721 25.4746 129.721 17.0137C129.721 8.55859 136.447 1.70312 144.75 1.70312C153.047 1.70312 159.773 8.55859 159.773 17.0137Z" fill="#CBC9DB" fill-opacity="0.4"/>
</g>
<mask id="mask1_307_2" style="mask-type:luminance" maskUnits="userSpaceOnUse" x="128" y="0" width="34" height="31">
<path d="M128.947 0.65625H161.561V30.7969H128.947V0.65625Z" fill="white"/>
</mask>
<g mask="url(#mask1_307_2)">
<path d="M145.061 0.656251L144.335 0.679689C143.087 0.685548 141.44 1.05469 139.401 1.79883C139.196 1.81055 137.608 2.60156 134.643 4.16016C133.612 4.88672 133.02 5.34375 132.88 5.53125C131.796 6.54492 130.969 7.74609 130.413 9.12891L129.218 12.6094C128.995 13.5469 128.913 14.502 128.971 15.4746C129.452 19.5352 131.104 22.9688 133.911 25.7813C134.608 26.4492 135.37 27.0527 136.196 27.5918L140.421 29.9063C141.639 30.4805 143.233 30.7793 145.202 30.7969C146.257 30.7383 147.182 30.5859 147.979 30.3281L149.21 29.877C150.71 29.5957 151.817 29.2852 152.532 28.9512C154.489 28.0898 155.942 27.2051 156.897 26.2969C160.067 23.666 161.637 20.3027 161.602 16.2129C161.509 12.5332 159.587 8.68946 155.837 4.66406C154.635 3.42774 152.743 2.31446 150.147 1.3418C148.975 0.873048 147.282 0.644533 145.061 0.656251ZM139.852 29.4023L140.098 29.4961L140.772 29.7773L141.458 30.0352L142.149 30.2227L142.858 30.3633L143.567 30.4336L144.264 30.457L144.973 30.4277L145.694 30.3516L146.432 30.2168L147.053 30.0762L147.634 30.0527L148.348 29.9941L148.653 29.959L148.091 30.1523L146.614 30.4981L144.839 30.6445L144.024 30.6094L143.321 30.5391L142.624 30.416L141.927 30.252L141.223 30.0352L140.538 29.7773L139.852 29.4023ZM136.928 27.1582L136.946 27.1758L137.977 27.8379L139.143 28.4414C139.788 28.7285 140.462 28.9922 141.177 29.2207C142.155 29.5195 143.11 29.7363 144.053 29.877C144.522 29.9473 144.991 30 145.448 30.0352L146.18 30.0703L146.385 30.0762L145.753 30.1875L145.026 30.2754L144.317 30.3106L143.626 30.293L142.917 30.2227L142.202 30.0938L141.51 29.9063L140.837 29.6602L140.151 29.3731C139.524 29.1387 139.214 29.0215 139.225 29.0156C138.968 28.8516 138.622 28.6055 138.188 28.2656C137.825 27.9844 137.409 27.6152 136.928 27.1582ZM146.38 0.884767L146.784 0.908205C150.428 1.3125 153.921 3.20508 157.255 6.5918C158.983 9.03516 159.862 12.1113 159.891 15.8262C159.757 19.3418 158.427 22.3184 155.901 24.7559C155.022 25.5938 154.466 26.0918 154.243 26.2441C152.96 27.1699 151.723 27.9375 150.54 28.5469C148.442 29.5957 146.925 30.0762 145.999 29.9883C142.565 29.8828 139.419 28.8223 136.559 26.8066C135.616 25.8516 134.678 24.7324 133.747 23.4375C133.471 23.2031 133.173 22.6406 132.862 21.7441C132.575 20.9531 132.305 19.9805 132.053 18.832C131.889 17.8184 131.889 16.7871 132.053 15.7324C132.411 13.9043 133.038 12.3516 133.934 11.0742C134.661 9.98438 135.505 8.94727 136.466 7.96289C136.659 7.76367 137.239 7.29492 138.206 6.55078C140.344 5.02734 142.296 4.05469 144.065 3.63281C145.864 3.17578 147.563 3.05273 149.157 3.26953C147.03 2.88867 144.563 3.26953 141.745 4.41797C139.003 5.73047 136.817 7.35938 135.2 9.32227C133.454 11.2734 132.358 13.582 131.93 16.248C131.678 18.0234 132.1 20.168 133.208 22.6758C130.782 19.1074 129.651 16.0371 129.809 13.4707C129.815 12.5332 129.927 11.5898 130.149 10.6348C130.12 10.4883 130.307 10.0723 130.718 9.38086C131.532 7.89844 132.973 6.24609 135.048 4.42383C135.3 4.21875 135.868 3.83789 136.741 3.29297C137.948 2.71289 139.266 2.20313 140.696 1.75195C142.489 1.17774 144.387 0.890626 146.38 0.884767ZM158.169 7.68164L158.186 7.70508C159.657 9.64453 160.694 11.8184 161.28 14.2324C161.532 15.7148 161.555 17.1563 161.344 18.5566C161.268 19.0371 161.163 19.5059 161.034 19.9688L160.811 20.6484C160.647 21.1055 160.46 21.5391 160.249 21.9551C159.973 22.6289 159.288 23.6074 158.204 24.8848C157.249 25.9395 156.13 26.8711 154.835 27.6797C153.616 28.4297 152.315 29.0039 150.932 29.4082L149.52 29.7363C150.3 29.3906 150.991 29.0039 151.583 28.5762C150.54 29.1738 149.696 29.5898 149.057 29.8125C148.395 29.9121 147.839 29.9707 147.382 29.9824C149.268 29.4961 151.53 28.3301 154.178 26.4844C156.182 24.9785 157.741 23.1387 158.86 20.959C159.288 20.0801 159.604 19.166 159.809 18.2051C159.915 17.7246 159.985 17.2441 160.026 16.7754C160.085 16.5469 160.085 15.8145 160.038 14.5781C159.874 11.9648 159.247 9.66797 158.169 7.68164ZM129.833 11.1797L129.815 11.2617C129.569 12.6797 129.552 14.1387 129.774 15.6328C130.05 17.0449 130.53 18.4219 131.216 19.7578C132.065 21.3984 133.167 23.0684 134.52 24.7559C135.739 26.3145 137.046 27.6211 138.434 28.6699C137.022 28.0781 135.546 27.0879 134.005 25.6992C132.628 24.375 131.532 22.834 130.706 21.0645C130.313 20.2266 129.973 19.3301 129.692 18.3809C129.382 17.4082 129.188 16.4473 129.112 15.5039C129.007 14.1094 129.247 12.668 129.833 11.1797ZM135.598 3.84961L135.575 3.86719L134.96 4.30664L134.356 4.79883C133.975 5.15039 133.612 5.50196 133.266 5.85938L132.768 6.38672C132.446 6.74414 132.147 7.09571 131.866 7.45313L131.427 8.02735C131.139 8.40821 130.846 8.85938 130.542 9.375L130.858 8.61914L131.192 7.98047L131.573 7.3711C131.843 6.97266 132.135 6.5918 132.464 6.22852L132.95 5.73047C133.29 5.40235 133.653 5.0918 134.046 4.79883L134.655 4.3711C135.229 4.03711 135.54 3.86719 135.598 3.84961ZM150.897 1.83399L151.29 1.98633C151.753 2.17969 152.204 2.39063 152.626 2.61328L153.253 2.95899C153.663 3.19922 154.05 3.45117 154.425 3.72656C155.251 4.33008 155.942 4.96289 156.499 5.61914C154.946 4.11328 153.083 2.85352 150.897 1.83399ZM143.192 0.943361L142.887 0.996095L142.196 1.14844L141.493 1.31836L140.772 1.52344L140.052 1.75781L139.319 2.00977L138.803 2.20899L139.477 1.92188L140.169 1.66406L140.854 1.44141L141.546 1.25391L142.243 1.0957L142.958 0.972658L143.192 0.943361Z" fill="#737373"/>
</g>
<path d="M135.562 6.98828L134.812 7.29883L134.168 7.69727L133.57 8.14844L133.131 8.69922L132.797 9.36133L132.633 9.99414L132.686 9.625L132.896 8.82227L133.23 8.10742L133.682 7.49805L134.08 7.24609L133.805 7.31641L133.254 7.9082L132.885 8.61133L132.662 9.36719L132.568 9.89453L132.527 10.627L132.721 11.5996L133.061 12.2676L133.699 12.8711L134.379 13.2109L135.047 13.2051L135.791 12.9355L136.377 12.5254L136.559 12.3438L136.805 12.25L137.455 11.834L138.023 11.2715L138.445 10.6914L138.732 10.0586L138.844 9.32617L138.744 8.61133L138.387 8.05469L137.689 7.49219L137.021 7.16992L136.295 7.00586L135.562 6.98828ZM135.791 7.23438L136.471 7.29883L137.127 7.49805L137.777 7.87305L138.334 8.38867L138.545 8.875L138.586 9.54297L138.422 10.2109L138.129 10.7617L137.689 11.3184L137.121 11.834L136.963 11.9219L137.443 11.2891L137.842 10.627L138.105 9.9707L138.164 9.12109L137.812 8.38281L137.15 7.88477L136.441 7.66797L135.65 7.59766L134.947 7.73828L134.045 8.18359L133.477 8.69336L133.236 9.43164L133.184 10.2051L133.307 10.9434L133.611 11.6934L134.104 12.2617L133.658 12.1094L133.869 12.3262L134.725 12.5781L135.445 12.6191L135.732 12.5723L135.475 12.7363L134.83 12.9121L134.32 12.877L133.676 12.4844L133.207 11.9453L133.061 11.6172L133.09 11.6465L132.914 11.2832L132.844 10.5918L132.908 9.91797L133.113 9.27344L133.459 8.66992L133.904 8.20117L134.473 7.81445L135.152 7.41602L135.791 7.23438ZM135.838 7.94922L136.559 8.04883L137.162 8.29492L137.637 8.75781L137.812 9.33789L137.695 10.0352L137.438 10.6094L137.039 11.2539L136.535 11.8926L136.102 12.3145L135.873 12.3906L135.211 12.4609L134.648 12.4141L134.42 12.2148L133.799 11.3477L133.582 10.6621L133.523 9.99414L133.617 9.30859L133.846 8.77539L134.455 8.34766L135.258 8.00195L135.838 7.94922Z" fill="#737373"/>
<path d="M144.697 3.46094L143.988 3.71289L143.473 4.09961L143.01 4.15234L142.729 4.26367L141.773 5.03125L141.797 5.16602L142.84 4.55078L143.074 4.50391C143.016 4.52148 142.793 4.80273 142.4 5.34766L142.154 5.56445L141.656 6.23828L141.492 6.84766L141.527 7.22852L141.551 7.1875L141.521 7.42773L142.014 8.06055L142.072 8.08398L142.354 8.41797L143.057 8.72266L143.742 8.85742C144.275 8.89844 144.75 8.92773 145.178 8.93359C145.688 8.93359 146.18 8.91016 146.66 8.86328C147.1 8.82227 147.574 8.76367 148.078 8.6875L148.863 8.55273L149.637 8.18945L150.17 7.75586L150.492 7.13477L150.428 6.34961L150.111 5.75781L149.543 5.21875L148.922 4.80859C148.57 4.59766 148.154 4.39258 147.68 4.1875C147.176 3.95898 146.666 3.77148 146.156 3.61328L145.43 3.47266L144.697 3.46094ZM145.154 3.73047L145.84 3.82422L146.531 4.02344C147.082 4.22852 147.574 4.43945 148.002 4.64453C148.418 4.84375 148.799 5.05469 149.133 5.27734L149.748 5.78125L150.088 6.24414L150.246 6.88867L150.07 7.45117L149.672 7.85547L149.021 8.22461L148.26 8.41211C147.311 8.57617 146.35 8.68164 145.383 8.73438C144.938 8.74609 144.469 8.74023 143.982 8.71094L143.285 8.62891L142.652 8.43555L142.213 8.13086L142.699 8.3125L143.561 8.41211L144.398 8.44141L145.189 8.42383L145.928 8.35352L146.607 8.23633L147.24 8.06641L148.008 7.75586L148.605 7.36328L149.086 6.60156L148.775 5.83398L148.107 5.32422L147.516 4.99023L146.789 4.64453L145.998 4.36328L145.254 4.1875L144.51 4.08789L143.988 4.06445L144.533 3.78906L145.154 3.73047ZM144.65 4.58008L145.383 4.63281L145.377 4.60352L145.635 4.65625L146.355 4.88477L147.094 5.22461L147.703 5.55273L148.283 5.93945L148.705 6.39062L148.541 6.87695L148.061 7.28711L147.404 7.61523L146.771 7.82031L146.145 7.96094L145.459 8.04883L144.715 8.0957L143.918 8.08984L143.068 8.03711L142.395 7.88477L141.902 7.52734L141.82 7.07617L142.107 6.36719L142.547 5.65234L143.01 5.01953L143.268 4.85547L143.924 4.64453L144.65 4.58008ZM142.254 5.58203L142.043 5.9043L141.709 6.53711L141.768 6.24414L142.178 5.64648L142.254 5.58203ZM143.566 4.4043L144.229 4.42188L144.932 4.50391L145.295 4.58594L144.662 4.49219L143.9 4.5625L143.227 4.78516L143.18 4.81445L143.42 4.5332L143.566 4.4043Z" fill="#737373"/>
<path d="M136.301 17.6816L135.621 17.7285L134.824 17.9277L134.127 18.1328C133.617 18.3027 133.207 18.4551 132.896 18.5781L133.031 18.2676L133.447 17.8574L132.932 18.2852L132.809 18.6133L132.762 18.6309L132.357 19.375L133.031 19.7617L133.928 20.0137L134.689 20.0898L135.381 19.9375L135.861 19.1289L135.662 18.7539L136.219 18.291L136.301 17.6816ZM135.457 18.8828L135.463 18.8887L135.363 19.4863L134.877 19.7207L134.25 19.7266L133.729 19.6211L134.209 19.5039L135.041 19.1348L135.457 18.8828ZM134.221 18.4551L135.012 18.5195L135.281 18.7422L135.129 18.8477L134.379 19.2461L133.723 19.498L133.623 19.5977L133.447 19.5625L132.908 19.3574L132.732 18.9648L132.967 18.8594L132.961 19.1289L133.693 18.6309L134.221 18.4551ZM132.697 19.0234L132.762 19.1699L132.826 19.3223L132.697 19.2754V19.0234ZM136.113 17.9277L136.213 17.957L135.691 18.4492L135.551 18.5488L135.404 18.2852L134.889 18.1738L135.381 18.0332L136.113 17.9277Z" fill="#737373"/>
<path d="M151.26 10.5507L150.545 10.6093C149.666 10.5742 148.898 10.6269 148.248 10.7617L146.965 11.1543L146.027 11.5937C144.861 11.9336 144.24 12.1504 144.146 12.2265C142.641 13 141.627 13.6562 141.111 14.1953C140.725 14.5468 140.408 14.9277 140.162 15.3203L139.822 16.0117L139.699 16.7851L140.074 17.5L140.695 17.9511C141.111 18.1621 141.58 18.3379 142.113 18.4668L142.289 18.6015L142.939 18.9062L143.707 19.1172C144.123 19.205 144.557 19.2695 145.008 19.3105C145.963 19.4043 146.965 19.416 148.014 19.3457C148.863 19.2636 149.801 19.1172 150.832 18.9004C151.898 18.6894 152.883 18.4082 153.773 18.0566C154.863 17.5761 155.514 17.248 155.725 17.0605L156.369 16.5449C156.75 16.1875 157.025 15.8183 157.189 15.4258L157.371 14.7226L157.318 13.8203L157.113 12.9941L156.65 12.3496L155.994 11.8808L154.84 11.3125L154.201 11.0488C153.246 10.709 152.268 10.5449 151.26 10.5507ZM157.072 14.7871V14.7929L156.896 15.4023L156.574 15.9297L156.094 16.4394L155.443 16.9433C155.051 17.1836 154.635 17.4004 154.201 17.5996C153.768 17.7929 153.316 17.9687 152.854 18.1269L152.145 18.3379C151.09 18.6133 150.094 18.8242 149.156 18.9707C148.693 19.041 148.254 19.0937 147.838 19.1289L147.07 19.164C145.992 19.1816 145.043 19.1289 144.217 19.0058L143.549 18.8769L142.84 18.6601L142.752 18.6133C143.244 18.7187 143.742 18.8008 144.246 18.8652L145.084 18.9414C145.635 18.9648 146.133 18.9707 146.566 18.9707L147.311 18.9472L148.061 18.8769L149.543 18.5722C150.457 18.3847 151.412 18.1562 152.396 17.8867C152.9 17.7402 153.334 17.5996 153.703 17.4648C154.207 17.2363 154.658 17.0078 155.057 16.7734L155.695 16.3515L156.27 15.8828L156.797 15.2968L157.072 14.7871ZM150.223 11.0722H150.938C152.133 11.125 152.877 11.2011 153.17 11.3066C154.148 11.5293 154.998 11.8281 155.725 12.209C155.795 12.2207 156.035 12.4492 156.445 12.8886L156.82 13.4043L156.92 13.8847L156.773 14.5468L156.439 15.1211C156.146 15.4843 155.801 15.8066 155.414 16.0761L154.816 16.4629C154.418 16.6972 153.99 16.914 153.533 17.1133C152.115 17.5879 150.75 17.957 149.438 18.2207L147.984 18.5254C147.51 18.5898 147.029 18.6191 146.549 18.6191C144.984 18.6543 143.52 18.4961 142.148 18.1386C141.943 18.1035 141.803 18.0273 141.732 17.9277L141.334 17.4121L141.123 16.791L141.164 16.1582L141.416 15.5136C141.586 15.1562 141.885 14.7695 142.312 14.3535L143.027 13.7265L142.969 13.709L142.195 14.289L141.574 14.9863L141.217 15.5664L140.977 16.2695L140.982 16.9726L141.264 17.6289L141.533 17.9453L140.836 17.6523L140.297 17.2597L140.021 16.7207L140.145 16.0996L140.455 15.4668C140.689 15.0976 140.994 14.7461 141.363 14.4062C141.879 13.873 142.869 13.2343 144.334 12.4843C145.23 12.1328 146.01 11.8867 146.66 11.7343C145.594 12.1386 144.756 12.5429 144.158 12.959L144.422 12.8711C145.207 12.4902 145.857 12.1972 146.367 11.9922C147.246 11.664 147.691 11.5058 147.703 11.5175C148.031 11.3886 148.564 11.2597 149.303 11.1425L150.223 11.0722Z" fill="#737373"/>
<path d="M138.188 23.2891L137.566 23.4531L136.998 23.9336H136.887L136.266 24.3789L135.92 25.2109L136.148 26.0723L136.969 26.4707L137.725 26.5352L138.51 26.4473L139.324 26.1133L139.354 26.084L140.039 25.7852L140.713 25.3105L140.479 24.6367L139.693 24.4023L139.406 24.209L138.891 24.1914C138.598 24.1211 138.17 24.0273 137.613 23.916L137.109 23.9277L137.414 23.6699L137.848 23.4238L138.557 23.377L139.301 23.5352L138.879 23.3594L138.188 23.2891ZM137.215 24.168L137.936 24.2617L138.234 24.3203L138.035 24.4902L138.896 24.4668C139.178 24.5313 139.436 24.5957 139.676 24.666L139.805 25.0527L139.441 25.5918L138.838 25.9727L138.111 26.1602L137.426 26.1895L136.852 26.0371L136.465 25.6328L136.447 25.082L136.553 24.584L136.693 24.3613L137.215 24.168ZM136.277 25.4102L136.412 25.7793C136.359 25.7324 136.307 25.6797 136.254 25.6328L136.277 25.4102ZM140.127 24.8125L140.344 24.918L140.566 25.0234L140.303 25.3516L139.916 25.5566C139.986 25.3105 140.057 25.0586 140.127 24.8125ZM136.529 24.6133L136.406 24.9766L136.289 25.334C136.301 25.1934 136.318 25.0527 136.336 24.9121L136.529 24.6133Z" fill="#737373"/>
<path d="M147.076 21.2852L146.355 21.4258L145.635 21.7246L144.92 22.2109L144.428 22.7734L144.17 23.5703L144.398 24.3789L144.949 24.9531L145.471 25.2578L145.564 25.3516L146.145 25.7559L146.807 26.0781L147.504 26.2656L148.201 26.3301L148.336 26.3652L148.945 26.4824L149.455 26.4297L149.309 26.3828C149.49 26.4004 149.877 26.3887 150.475 26.3535L151.23 26.248L151.91 26.0488L152.549 25.5332L152.467 24.9297L152.104 24.2207L151.605 23.5703L151.084 23.0547L150.498 22.5918L149.906 22.2051L149.273 21.8652L148.582 21.5664L147.85 21.3262L147.076 21.2852ZM147.047 21.6133L147.738 21.625L148.418 21.8301L149.104 22.1172L149.73 22.4395L150.311 22.8027L150.885 23.248L151.383 23.7285L151.857 24.332L152.215 24.9883L152.303 25.4688L151.863 25.8027L151.201 26.002L150.475 26.1133C149.971 26.1484 149.502 26.166 149.074 26.1484L148.506 26.1191C148.031 25.9902 147.562 25.832 147.088 25.6563L146.432 25.3691C146.016 25.1758 145.6 24.9531 145.184 24.7012L145.102 24.6133L144.891 24.1035L144.932 23.418L144.768 24.1035L144.861 24.373L144.715 24.2207L144.516 23.623L144.697 22.9902L145.107 22.5039L145.746 22.0586L146.408 21.7598L147.047 21.6133ZM146.52 22.0117L145.939 22.1348L145.324 22.7031L145.107 23.0723L145.723 22.4277L146.285 22.0938L146.871 22.0996L147.51 22.2051L148.336 22.4102L148.635 22.4629L147.861 22.1992L147.176 22.0527L146.52 22.0117Z" fill="#737373"/>
<path d="M155.977 18.9531L155.115 19.2051L154.459 19.5273L153.926 19.9902L153.404 20.5469L152.971 21.1387L152.895 21.6895L153.428 21.0156L153.873 20.5293L154.447 19.9961L154.904 19.6855L155.584 19.4102L156.422 19.2402L156.879 19.3574L156.832 20.0488L156.539 20.6641L156.076 21.168L155.426 21.5664L154.805 21.707L154.107 21.543L153.844 21.1563L154.125 20.5703L154.535 20.0371L154.242 20.1953L153.791 20.7871L153.721 21.4609L154.383 21.9063L155.145 21.9121L155.859 21.6133L156.498 21.1152L156.932 20.5L157.184 19.7617L156.844 18.9824L155.977 18.9531Z" fill="#737373"/>
<mask id="mask2_307_2" style="mask-type:luminance" maskUnits="userSpaceOnUse" x="129" y="0" width="17" height="32">
<path d="M129 0.65625H145.5V31.0312H129V0.65625Z" fill="white"/>
</mask>
<g mask="url(#mask2_307_2)">
<path d="M137.819 2.67773L137.403 2.7832C135.727 3.60352 134.713 4.29492 134.362 4.85742C133.307 6.1582 132.27 8.02148 131.25 10.4414C130.319 12.5977 129.833 14.2734 129.792 15.457C129.645 16.9219 129.733 18.375 130.049 19.8105C130.407 21.2109 130.987 22.5293 131.784 23.7539C133.002 25.5527 134.139 26.8652 135.194 27.6855C137.045 28.8984 138.569 29.6777 139.77 30.0293C141.885 30.6621 143.561 30.8848 144.786 30.7031L144.979 30.6387C143.514 30.5742 142.401 30.4453 141.639 30.252C141.387 30.2285 140.702 30.0234 139.571 29.6484C139.348 29.5898 138.686 29.2969 137.584 28.7637C136.764 28.3359 135.944 27.832 135.124 27.252C132.434 24.668 130.799 22.0664 130.225 19.4355C130.032 18.5039 129.944 17.5547 129.967 16.5938C130.02 15.3984 130.084 14.6895 130.161 14.4551C130.319 13.3184 130.899 11.6719 131.895 9.52734C132.68 7.73438 133.618 6.13477 134.702 4.73438C135.088 4.24805 136.125 3.5625 137.819 2.67773ZM143.883 0.726562L143.051 0.779297L142.401 0.919922L141.663 1.11328L141.012 1.31836L140.491 1.45312L139.653 1.75781L138.985 2.0625L138.668 2.21484L138.657 2.32031C139.442 1.98047 140.022 1.74023 140.397 1.58789C140.409 1.57031 141.053 1.38281 142.336 1.03711L143.004 0.890625L143.819 0.791016L144.159 0.884766L143.883 0.726562Z" fill="#737373"/>
</g>
<path d="M133.453 6.64844L132.979 7.39844C132.668 7.9082 132.1 9.00977 131.273 10.7031L131.039 11.3711L130.928 12.0566C130.74 14.4004 130.588 17.1074 130.477 20.1719C130.494 20.5938 130.57 21.0332 130.699 21.4961L130.934 22.1816C131.121 22.668 131.344 23.1074 131.59 23.5176C132.047 24.291 132.656 25.082 133.43 25.8789C136.787 28.5859 138.949 29.9453 139.91 29.9629C138.264 29.248 136.143 27.8301 133.553 25.7031C132.814 24.9355 132.217 24.1738 131.754 23.4062C131.508 23.0078 131.291 22.5742 131.098 22.1055L130.863 21.4316C130.723 20.9746 130.646 20.541 130.635 20.1426L130.646 19.4629C130.711 17.6875 130.834 15.4609 131.004 12.7832C131.045 12.25 131.109 11.7637 131.191 11.3242C131.309 10.9434 131.502 10.4688 131.789 9.91211C132.451 8.51172 133.025 7.43359 133.512 6.67188L133.453 6.64844ZM137.133 3.85352L136.389 4.06445L135.797 4.46289L134.766 5.31836L134.238 5.82812L133.975 6.09766L134.443 5.70508L134.947 5.22461L135.363 4.87305L135.99 4.39258L136.617 4.00586L137.268 3.92969L137.133 3.85352Z" fill="#737373"/>
<path d="M22.3398 21.599L23.6992 20.0345C23.8633 19.8705 24.1094 20.0345 23.9863 20.2044L19.9902 25.6771C20.3594 29.0111 23.0781 30.6165 26.2891 30.6165C29.541 30.6165 32.7109 27.6927 32.7109 24.1537V7.93491C32.7109 1.92319 25.0117 -0.959625 21.1035 3.97983L16.6973 9.49936L12.4141 3.97983C8.50586 -0.959625 0.806641 1.92319 0.806641 7.93491V24.1537C0.806641 27.6927 3.97656 30.6165 7.22852 30.6165C10.3984 30.6165 13.1582 29.0111 13.5273 25.6771L9.53711 20.2044C9.36719 19.9935 9.66016 19.8705 9.82422 20.0345L11.1016 21.599C12.8711 23.6205 14.7637 25.39 16.6562 25.39C18.5898 25.431 20.6113 23.6615 22.3398 21.599Z" fill="#7162DD"/>
<path d="M47.9824 30.6576C55.6406 30.6576 62.0215 24.2767 62.0215 16.6185V7.77087C62.0215 4.14392 59.0156 1.13806 55.5176 1.13806C51.8496 1.13806 48.8848 4.14392 48.8848 7.77087V15.8392C48.8848 16.3314 48.4746 16.8646 47.9824 16.8646C47.4492 16.8646 47.0742 16.3314 47.0742 15.8392V7.77087C47.0742 4.14392 44.1973 1.13806 40.5703 1.13806C36.9082 1.13806 33.9434 4.14392 33.9434 7.77087V16.6185C33.9434 24.2767 40.2832 30.6576 47.9824 30.6576Z" fill="#7162DD"/>
<path d="M73.5879 10.3607L72.2285 11.9252C72.0645 12.0892 71.8125 11.9252 71.9414 11.7611L75.9727 6.24744C75.6035 2.87244 72.8848 1.26697 69.6738 1.26697C66.3398 1.26697 63.1699 4.18494 63.1699 7.81189V24.1127C63.1699 30.2064 70.9512 33.0892 74.8594 28.1088L79.3066 22.5482L83.6309 28.1088C87.5391 33.0892 95.3203 30.2064 95.3203 24.1127V7.81189C95.3203 4.18494 92.1504 1.26697 88.8164 1.26697C85.6465 1.26697 82.8926 2.87244 82.5176 6.24744L86.5547 11.7611C86.7188 11.9662 86.4316 12.0892 86.2266 11.9252L84.9492 10.3607C83.1387 8.30408 81.2402 6.53455 79.3477 6.53455C77.373 6.49353 75.3984 8.26306 73.5879 10.3607Z" fill="#7162DD"/>
<path d="M125.871 23.8666V7.64783C125.871 4.06189 122.906 1.05603 119.238 1.05603C116.191 1.05603 113.52 3.36462 112.898 6.16541L115.33 9.70447C115.453 9.95056 115.084 10.1967 114.961 9.95056L108.246 3.36462C107.016 2.1283 105.199 1.05603 103.225 1.05603C99.6035 1.05603 96.6387 4.06189 96.6387 7.64783V23.8666C96.6387 27.5697 99.6035 30.4525 103.225 30.4525C106.312 30.4525 108.99 28.3138 109.605 25.472L107.262 21.851C107.139 21.558 107.508 21.1888 107.631 21.4349C109.934 23.8666 112.283 26.0873 114.709 28.4369C118.418 32.181 125.871 30.2064 125.871 23.8666Z" fill="#7162DD"/>
</svg>
