<svg width="998" height="998" viewBox="0 0 998 998" fill="none" xmlns="http://www.w3.org/2000/svg">
<path d="M0 298.145C0 374.53 29.25 450.91 87.4115 509.061C165.875 587.509 282.88 615.723 388.531 582.348L797.708 991.108C800.807 994.551 805.281 996.27 809.755 996.27L980.792 997.65C985.266 997.65 989.74 995.926 992.839 992.483C996.281 989.389 998 984.915 998 980.441C998 929.197 997.318 877.921 996.76 826.676C996.656 813.473 998.62 792.238 979.417 792.238H883.401V696.238C883.401 691.421 880.99 686.603 877.552 683.509C874.453 680.066 869.979 678.348 865.505 678.348H768.802L769.146 582.004C769.146 577.53 767.083 573.056 763.984 569.962C760.885 566.52 756.417 564.801 751.938 564.801H655.24V468.118C655.24 463.645 653.172 459.171 650.078 455.728L582.625 388.29C615.661 282.66 587.786 165.676 509.323 87.2227C393.005 -29.0742 203.729 -29.0742 87.4115 87.2227C29.25 145.374 0 221.759 0 298.145ZM266.016 167.738C293.203 194.921 293.203 238.962 266.016 265.801C239.177 292.983 195.125 292.983 167.938 265.801C140.75 238.962 140.75 194.921 167.938 167.738C195.125 140.556 239.177 140.556 266.016 167.738Z" fill="black"/>
</svg>
