<svg viewBox="0 0 20 20" fill="none" xmlns="http://www.w3.org/2000/svg">
          <path
            d="M10.7778 4.55556V2.77778C10.7778 2.30628 10.5905 1.8541 10.2571 1.5207C9.92368 1.1873 9.4715 1 9 1H2.77778C2.30628 1 1.8541 1.1873 1.5207 1.5207C1.1873 1.8541 1 2.30628 1 2.77778V13.4444C1 13.9159 1.1873 14.3681 1.5207 14.7015C1.8541 15.0349 2.30628 15.2222 2.77778 15.2222H9C9.4715 15.2222 9.92368 15.0349 10.2571 14.7015C10.5905 14.3681 10.7778 13.9159 10.7778 13.4444V11.6667"
            stroke="black"
            stroke-width="1.5"
            stroke-linecap="round"
            stroke-linejoin="round"
          />
          <path
            d="M6.33333 8.111H17M17 8.111L14.3333 5.44434M17 8.111L14.3333 10.7777"
            stroke="black"
            stroke-width="1.5"
            stroke-linecap="round"
            stroke-linejoin="round"
          />
        </svg>