<svg xmlns="http://www.w3.org/2000/svg" xmlns:xlink="http://www.w3.org/1999/xlink" width="128" zoomAndPan="magnify" viewBox="0 0 96 30.000001" height="40" preserveAspectRatio="xMidYMid meet" version="1.0"><defs><g/><clipPath id="17217b3ba6"><path d="M 1.546875 10 L 8 10 L 8 21 L 1.546875 21 Z M 1.546875 10 " clip-rule="nonzero"/></clipPath></defs><g clip-path="url(#17217b3ba6)"><g fill="#545454" fill-opacity="1"><g transform="translate(1.548386, 20.454179)"><g><path d="M 5.023438 0 L 6.261719 0 L 6.261719 -1.285156 L 5.085938 -1.285156 C 3.992188 -1.285156 3.488281 -1.839844 3.488281 -3.027344 L 3.488281 -7.003906 L 6.148438 -7.003906 L 6.148438 -8.226562 L 3.488281 -8.226562 L 3.488281 -10.269531 L 2.457031 -10.269531 L 2.328125 -9.160156 C 2.234375 -8.414062 2.011719 -8.226562 1.253906 -8.226562 L 0.429688 -8.226562 L 0.429688 -7.003906 L 2.15625 -7.003906 L 2.15625 -2.964844 C 2.15625 -1.078125 3.203125 0 5.023438 0 Z M 5.023438 0 "/></g></g></g></g><g fill="#545454" fill-opacity="1"><g transform="translate(8.584495, 20.454179)"><g><path d="M 1.472656 0 L 2.804688 0 L 2.804688 -4.199219 C 2.804688 -6.007812 3.898438 -7.164062 5.453125 -7.164062 C 6.878906 -7.164062 7.765625 -6.148438 7.765625 -4.5 L 7.765625 0 L 9.097656 0 L 9.097656 -4.628906 C 9.097656 -6.972656 7.796875 -8.429688 5.625 -8.429688 C 4.5625 -8.429688 3.519531 -8.035156 2.804688 -7.148438 L 2.804688 -11.726562 L 1.472656 -11.726562 Z M 1.472656 0 "/></g></g></g><g fill="#545454" fill-opacity="1"><g transform="translate(18.996035, 20.454179)"><g><path d="M 5.039062 0.207031 C 6.894531 0.207031 8.414062 -0.792969 9.082031 -2.394531 L 7.574219 -2.394531 C 7.066406 -1.519531 6.132812 -1.046875 5.054688 -1.046875 C 3.488281 -1.046875 2.378906 -2.027344 2.171875 -3.582031 L 9.285156 -3.582031 C 9.382812 -6.449219 7.6875 -8.429688 5.054688 -8.429688 C 2.566406 -8.429688 0.824219 -6.65625 0.824219 -4.121094 C 0.824219 -1.570312 2.550781 0.207031 5.039062 0.207031 Z M 2.1875 -4.753906 C 2.425781 -6.210938 3.535156 -7.179688 5.054688 -7.179688 C 6.5625 -7.179688 7.671875 -6.261719 7.957031 -4.753906 Z M 2.1875 -4.753906 "/></g></g></g><g fill="#356b6b" fill-opacity="1"><g transform="translate(29.074785, 20.454179)"><g><path d="M 5.957031 0.207031 C 8.382812 0.207031 10.144531 -1.617188 10.144531 -4.121094 C 10.144531 -6.609375 8.382812 -8.429688 5.957031 -8.429688 C 4.613281 -8.429688 3.46875 -7.875 2.726562 -6.957031 L 2.566406 -8.226562 L 1.472656 -8.226562 L 1.472656 3.167969 L 2.804688 3.167969 L 2.804688 -1.171875 C 3.550781 -0.316406 4.660156 0.207031 5.957031 0.207031 Z M 2.757812 -4.121094 C 2.757812 -5.894531 4.007812 -7.164062 5.785156 -7.164062 C 7.574219 -7.164062 8.8125 -5.894531 8.8125 -4.121094 C 8.8125 -2.328125 7.574219 -1.078125 5.785156 -1.078125 C 4.007812 -1.078125 2.757812 -2.328125 2.757812 -4.121094 Z M 2.757812 -4.121094 "/></g></g></g><g fill="#356b6b" fill-opacity="1"><g transform="translate(40.040973, 20.454179)"><g><path d="M 1.472656 0 L 2.804688 0 L 2.804688 -4.375 C 2.804688 -6.070312 3.757812 -7.164062 5.183594 -7.164062 C 6.5625 -7.164062 7.433594 -6.117188 7.433594 -4.484375 L 7.433594 0 L 8.765625 0 L 8.765625 -4.375 C 8.765625 -6.070312 9.714844 -7.164062 11.140625 -7.164062 C 12.519531 -7.164062 13.390625 -6.117188 13.390625 -4.484375 L 13.390625 0 L 14.722656 0 L 14.722656 -4.707031 C 14.722656 -7.003906 13.390625 -8.429688 11.316406 -8.429688 C 9.984375 -8.429688 8.90625 -7.859375 8.257812 -6.816406 C 7.703125 -7.875 6.6875 -8.429688 5.371094 -8.429688 C 4.230469 -8.429688 3.3125 -8.003906 2.695312 -7.195312 L 2.566406 -8.226562 L 1.472656 -8.226562 Z M 1.472656 0 "/></g></g></g><g fill="#356b6b" fill-opacity="1"><g transform="translate(56.078233, 20.454179)"><g><path d="M 2.265625 -9.066406 L 2.265625 -8.226562 L 0.476562 -8.226562 L 0.476562 -7.003906 L 2.265625 -7.003906 L 2.265625 0 L 3.597656 0 L 3.597656 -7.003906 L 6.464844 -7.003906 L 6.464844 -8.226562 L 3.597656 -8.226562 L 3.597656 -8.984375 C 3.597656 -10.175781 4.105469 -10.679688 5.261719 -10.679688 L 6.546875 -10.679688 L 6.546875 -11.933594 L 5.132812 -11.933594 C 3.28125 -11.933594 2.265625 -10.933594 2.265625 -9.066406 Z M 2.265625 -9.066406 "/></g></g></g><g fill="#545454" fill-opacity="1"><g transform="translate(62.780925, 20.454179)"><g><path d="M 5.023438 0 L 6.261719 0 L 6.261719 -1.285156 L 5.085938 -1.285156 C 3.992188 -1.285156 3.488281 -1.839844 3.488281 -3.027344 L 3.488281 -7.003906 L 6.148438 -7.003906 L 6.148438 -8.226562 L 3.488281 -8.226562 L 3.488281 -10.269531 L 2.457031 -10.269531 L 2.328125 -9.160156 C 2.234375 -8.414062 2.011719 -8.226562 1.253906 -8.226562 L 0.429688 -8.226562 L 0.429688 -7.003906 L 2.15625 -7.003906 L 2.15625 -2.964844 C 2.15625 -1.078125 3.203125 0 5.023438 0 Z M 5.023438 0 "/></g></g></g><g fill="#545454" fill-opacity="1"><g transform="translate(69.817035, 20.454179)"><g><path d="M 5.183594 0.207031 C 7.734375 0.207031 9.539062 -1.601562 9.539062 -4.121094 C 9.539062 -6.640625 7.734375 -8.429688 5.183594 -8.429688 C 2.628906 -8.429688 0.824219 -6.640625 0.824219 -4.121094 C 0.824219 -1.601562 2.628906 0.207031 5.183594 0.207031 Z M 2.15625 -4.121094 C 2.15625 -5.910156 3.40625 -7.164062 5.183594 -7.164062 C 6.957031 -7.164062 8.210938 -5.910156 8.210938 -4.121094 C 8.210938 -2.3125 6.957031 -1.078125 5.183594 -1.078125 C 3.40625 -1.078125 2.15625 -2.3125 2.15625 -4.121094 Z M 2.15625 -4.121094 "/></g></g></g><g fill="#545454" fill-opacity="1"><g transform="translate(80.181034, 20.454179)"><g><path d="M 5.183594 0.207031 C 7.734375 0.207031 9.539062 -1.601562 9.539062 -4.121094 C 9.539062 -6.640625 7.734375 -8.429688 5.183594 -8.429688 C 2.628906 -8.429688 0.824219 -6.640625 0.824219 -4.121094 C 0.824219 -1.601562 2.628906 0.207031 5.183594 0.207031 Z M 2.15625 -4.121094 C 2.15625 -5.910156 3.40625 -7.164062 5.183594 -7.164062 C 6.957031 -7.164062 8.210938 -5.910156 8.210938 -4.121094 C 8.210938 -2.3125 6.957031 -1.078125 5.183594 -1.078125 C 3.40625 -1.078125 2.15625 -2.3125 2.15625 -4.121094 Z M 2.15625 -4.121094 "/></g></g></g><g fill="#545454" fill-opacity="1"><g transform="translate(90.545033, 20.454179)"><g><path d="M 1.472656 0 L 2.804688 0 L 2.804688 -11.726562 L 1.472656 -11.726562 Z M 1.472656 0 "/></g></g></g></svg>