<svg xmlns="http://www.w3.org/2000/svg" xmlns:xlink="http://www.w3.org/1999/xlink" width="1920" zoomAndPan="magnify" viewBox="0 0 1440 809.999993" height="1080" preserveAspectRatio="xMidYMid meet" version="1.0"><defs><g/></defs><rect x="-144" width="1728" fill="#ffffff" y="-80.999999" height="971.999992" fill-opacity="1"/><rect x="-144" width="1728" fill="#ffffff" y="-80.999999" height="971.999992" fill-opacity="1"/><rect x="-144" width="1728" fill="#ffffff" y="-80.999999" height="971.999992" fill-opacity="1"/><g fill="#545454" fill-opacity="1"><g transform="translate(166.238333, 465.624661)"><g><path d="M 55.652344 0 L 69.347656 0 L 69.347656 -14.21875 L 56.355469 -14.21875 C 44.242188 -14.21875 38.625 -20.363281 38.625 -33.53125 L 38.625 -77.597656 L 68.117188 -77.597656 L 68.117188 -91.117188 L 38.625 -91.117188 L 38.625 -113.761719 L 27.210938 -113.761719 L 25.808594 -101.472656 C 24.753906 -93.222656 22.296875 -91.117188 13.871094 -91.117188 L 4.738281 -91.117188 L 4.738281 -77.597656 L 23.875 -77.597656 L 23.875 -32.828125 C 23.875 -11.9375 35.464844 0 55.652344 0 Z M 55.652344 0 "/></g></g></g><g fill="#545454" fill-opacity="1"><g transform="translate(244.186435, 465.624661)"><g><path d="M 16.328125 0 L 31.074219 0 L 31.074219 -46.523438 C 31.074219 -66.539062 43.1875 -79.351562 60.394531 -79.351562 C 76.191406 -79.351562 86.023438 -68.117188 86.023438 -49.859375 L 86.023438 0 L 100.773438 0 L 100.773438 -51.265625 C 100.773438 -77.246094 86.375 -93.398438 62.324219 -93.398438 C 50.5625 -93.398438 38.972656 -89.007812 31.074219 -79.179688 L 31.074219 -129.914062 L 16.328125 -129.914062 Z M 16.328125 0 "/></g></g></g><g fill="#545454" fill-opacity="1"><g transform="translate(359.528557, 465.624661)"><g><path d="M 55.828125 2.28125 C 76.367188 2.28125 93.222656 -8.777344 100.597656 -26.507812 L 83.917969 -26.507812 C 78.300781 -16.855469 67.941406 -11.585938 56.003906 -11.585938 C 38.625 -11.585938 26.335938 -22.472656 24.050781 -39.675781 L 102.878906 -39.675781 C 103.933594 -71.453125 85.148438 -93.398438 56.003906 -93.398438 C 28.441406 -93.398438 9.128906 -73.734375 9.128906 -45.644531 C 9.128906 -17.378906 28.265625 2.28125 55.828125 2.28125 Z M 24.226562 -52.667969 C 26.859375 -68.820312 39.148438 -79.527344 56.003906 -79.527344 C 72.683594 -79.527344 84.972656 -69.347656 88.132812 -52.667969 Z M 24.226562 -52.667969 "/></g></g></g><g fill="#356b6b" fill-opacity="1"><g transform="translate(471.168985, 465.624661)"><g><path d="M 66.011719 2.28125 C 92.871094 2.28125 112.359375 -17.90625 112.359375 -45.644531 C 112.359375 -73.207031 92.871094 -93.398438 66.011719 -93.398438 C 51.089844 -93.398438 38.449219 -87.253906 30.195312 -77.070312 L 28.441406 -91.117188 L 16.328125 -91.117188 L 16.328125 35.113281 L 31.074219 35.113281 L 31.074219 -12.992188 C 39.324219 -3.511719 51.613281 2.28125 66.011719 2.28125 Z M 30.546875 -45.644531 C 30.546875 -65.308594 44.417969 -79.351562 64.078125 -79.351562 C 83.917969 -79.351562 97.613281 -65.308594 97.613281 -45.644531 C 97.613281 -25.808594 83.917969 -11.9375 64.078125 -11.9375 C 44.417969 -11.9375 30.546875 -25.808594 30.546875 -45.644531 Z M 30.546875 -45.644531 "/></g></g></g><g fill="#356b6b" fill-opacity="1"><g transform="translate(592.655666, 465.624661)"><g><path d="M 16.328125 0 L 31.074219 0 L 31.074219 -42.308594 C 31.074219 -68.292969 44.066406 -77.421875 60.570312 -77.421875 L 69.523438 -77.421875 L 69.523438 -91.117188 L 61.269531 -91.117188 C 45.820312 -91.117188 36.691406 -86.199219 30.195312 -75.316406 L 28.441406 -91.117188 L 16.328125 -91.117188 Z M 16.328125 0 "/></g></g></g><g fill="#356b6b" fill-opacity="1"><g transform="translate(669.199295, 465.624661)"><g><path d="M 57.410156 2.28125 C 85.671875 2.28125 105.6875 -17.730469 105.6875 -45.644531 C 105.6875 -73.558594 85.671875 -93.398438 57.410156 -93.398438 C 29.144531 -93.398438 9.128906 -73.558594 9.128906 -45.644531 C 9.128906 -17.730469 29.144531 2.28125 57.410156 2.28125 Z M 23.875 -45.644531 C 23.875 -65.484375 37.746094 -79.351562 57.410156 -79.351562 C 77.070312 -79.351562 90.941406 -65.484375 90.941406 -45.644531 C 90.941406 -25.632812 77.070312 -11.9375 57.410156 -11.9375 C 37.746094 -11.9375 23.875 -25.632812 23.875 -45.644531 Z M 23.875 -45.644531 "/></g></g></g><g fill="#356b6b" fill-opacity="1"><g transform="translate(784.014751, 465.624661)"><g><path d="M 55.652344 2.28125 C 70.398438 2.28125 83.039062 -3.863281 91.292969 -14.042969 L 93.046875 0 L 105.160156 0 L 105.160156 -129.914062 L 90.414062 -129.914062 L 90.414062 -78.300781 C 82.164062 -87.78125 69.875 -93.398438 55.652344 -93.398438 C 28.617188 -93.398438 9.128906 -73.207031 9.128906 -45.644531 C 9.128906 -17.90625 28.617188 2.28125 55.652344 2.28125 Z M 23.875 -45.644531 C 23.875 -65.308594 37.746094 -79.351562 57.410156 -79.351562 C 77.246094 -79.351562 90.941406 -65.308594 90.941406 -45.644531 C 90.941406 -25.808594 77.246094 -11.9375 57.410156 -11.9375 C 37.746094 -11.9375 23.875 -25.808594 23.875 -45.644531 Z M 23.875 -45.644531 "/></g></g></g><g fill="#545454" fill-opacity="1"><g transform="translate(905.493173, 465.624661)"><g><path d="M 55.652344 0 L 69.347656 0 L 69.347656 -14.21875 L 56.355469 -14.21875 C 44.242188 -14.21875 38.625 -20.363281 38.625 -33.53125 L 38.625 -77.597656 L 68.117188 -77.597656 L 68.117188 -91.117188 L 38.625 -91.117188 L 38.625 -113.761719 L 27.210938 -113.761719 L 25.808594 -101.472656 C 24.753906 -93.222656 22.296875 -91.117188 13.871094 -91.117188 L 4.738281 -91.117188 L 4.738281 -77.597656 L 23.875 -77.597656 L 23.875 -32.828125 C 23.875 -11.9375 35.464844 0 55.652344 0 Z M 55.652344 0 "/></g></g></g><g fill="#545454" fill-opacity="1"><g transform="translate(983.441275, 465.624661)"><g><path d="M 57.410156 2.28125 C 85.671875 2.28125 105.6875 -17.730469 105.6875 -45.644531 C 105.6875 -73.558594 85.671875 -93.398438 57.410156 -93.398438 C 29.144531 -93.398438 9.128906 -73.558594 9.128906 -45.644531 C 9.128906 -17.730469 29.144531 2.28125 57.410156 2.28125 Z M 23.875 -45.644531 C 23.875 -65.484375 37.746094 -79.351562 57.410156 -79.351562 C 77.070312 -79.351562 90.941406 -65.484375 90.941406 -45.644531 C 90.941406 -25.632812 77.070312 -11.9375 57.410156 -11.9375 C 37.746094 -11.9375 23.875 -25.632812 23.875 -45.644531 Z M 23.875 -45.644531 "/></g></g></g><g fill="#545454" fill-opacity="1"><g transform="translate(1098.256731, 465.624661)"><g><path d="M 57.410156 2.28125 C 85.671875 2.28125 105.6875 -17.730469 105.6875 -45.644531 C 105.6875 -73.558594 85.671875 -93.398438 57.410156 -93.398438 C 29.144531 -93.398438 9.128906 -73.558594 9.128906 -45.644531 C 9.128906 -17.730469 29.144531 2.28125 57.410156 2.28125 Z M 23.875 -45.644531 C 23.875 -65.484375 37.746094 -79.351562 57.410156 -79.351562 C 77.070312 -79.351562 90.941406 -65.484375 90.941406 -45.644531 C 90.941406 -25.632812 77.070312 -11.9375 57.410156 -11.9375 C 37.746094 -11.9375 23.875 -25.632812 23.875 -45.644531 Z M 23.875 -45.644531 "/></g></g></g><g fill="#545454" fill-opacity="1"><g transform="translate(1213.072187, 465.624661)"><g><path d="M 16.328125 0 L 31.074219 0 L 31.074219 -129.914062 L 16.328125 -129.914062 Z M 16.328125 0 "/></g></g></g></svg>