<svg xmlns="http://www.w3.org/2000/svg" xmlns:xlink="http://www.w3.org/1999/xlink" width="128" zoomAndPan="magnify" viewBox="0 0 96 30.000001" height="40" preserveAspectRatio="xMidYMid meet" version="1.0"><defs><g/><clipPath id="2496f1f4f8"><path d="M 1.546875 10 L 8 10 L 8 20 L 1.546875 20 Z M 1.546875 10 " clip-rule="nonzero"/></clipPath><clipPath id="b94890bb37"><path d="M 43.207031 10.234375 L 53.648438 10.234375 L 53.648438 20.675781 L 43.207031 20.675781 Z M 43.207031 10.234375 " clip-rule="nonzero"/></clipPath></defs><g clip-path="url(#2496f1f4f8)"><g fill="#545454" fill-opacity="1"><g transform="translate(1.548386, 19.580612)"><g><path d="M 4.667969 0 L 5.816406 0 L 5.816406 -1.191406 L 4.726562 -1.191406 C 3.710938 -1.191406 3.238281 -1.707031 3.238281 -2.8125 L 3.238281 -6.507812 L 5.714844 -6.507812 L 5.714844 -7.644531 L 3.238281 -7.644531 L 3.238281 -9.542969 L 2.28125 -9.542969 L 2.164062 -8.511719 C 2.078125 -7.820312 1.871094 -7.644531 1.164062 -7.644531 L 0.398438 -7.644531 L 0.398438 -6.507812 L 2.003906 -6.507812 L 2.003906 -2.753906 C 2.003906 -1 2.976562 0 4.667969 0 Z M 4.667969 0 "/></g></g></g></g><g fill="#545454" fill-opacity="1"><g transform="translate(8.08696, 19.580612)"><g><path d="M 1.371094 0 L 2.605469 0 L 2.605469 -3.902344 C 2.605469 -5.582031 3.621094 -6.65625 5.066406 -6.65625 C 6.390625 -6.65625 7.214844 -5.714844 7.214844 -4.183594 L 7.214844 0 L 8.453125 0 L 8.453125 -4.300781 C 8.453125 -6.480469 7.246094 -7.835938 5.226562 -7.835938 C 4.242188 -7.835938 3.269531 -7.464844 2.605469 -6.640625 L 2.605469 -10.898438 L 1.371094 -10.898438 Z M 1.371094 0 "/></g></g></g><g fill="#545454" fill-opacity="1"><g transform="translate(17.762282, 19.580612)"><g><path d="M 4.683594 0.191406 C 6.40625 0.191406 7.820312 -0.738281 8.4375 -2.222656 L 7.039062 -2.222656 C 6.566406 -1.414062 5.699219 -0.972656 4.699219 -0.972656 C 3.238281 -0.972656 2.210938 -1.886719 2.019531 -3.328125 L 8.628906 -3.328125 C 8.71875 -5.992188 7.144531 -7.835938 4.699219 -7.835938 C 2.386719 -7.835938 0.765625 -6.183594 0.765625 -3.828125 C 0.765625 -1.457031 2.371094 0.191406 4.683594 0.191406 Z M 2.03125 -4.417969 C 2.253906 -5.773438 3.285156 -6.671875 4.699219 -6.671875 C 6.097656 -6.671875 7.128906 -5.816406 7.394531 -4.417969 Z M 2.03125 -4.417969 "/></g></g></g><g fill="#356b6b" fill-opacity="1"><g transform="translate(27.128346, 19.580612)"><g><path d="M 5.539062 0.191406 C 7.789062 0.191406 9.425781 -1.503906 9.425781 -3.828125 C 9.425781 -6.140625 7.789062 -7.835938 5.539062 -7.835938 C 4.285156 -7.835938 3.226562 -7.320312 2.53125 -6.464844 L 2.386719 -7.644531 L 1.371094 -7.644531 L 1.371094 2.945312 L 2.605469 2.945312 L 2.605469 -1.089844 C 3.300781 -0.292969 4.328125 0.191406 5.539062 0.191406 Z M 2.5625 -3.828125 C 2.5625 -5.480469 3.726562 -6.65625 5.375 -6.65625 C 7.039062 -6.65625 8.1875 -5.480469 8.1875 -3.828125 C 8.1875 -2.164062 7.039062 -1 5.375 -1 C 3.726562 -1 2.5625 -2.164062 2.5625 -3.828125 Z M 2.5625 -3.828125 "/></g></g></g><g fill="#356b6b" fill-opacity="1"><g transform="translate(37.319096, 19.580612)"><g><path d="M 1.371094 0 L 2.605469 0 L 2.605469 -3.550781 C 2.605469 -5.730469 3.695312 -6.496094 5.082031 -6.496094 L 5.832031 -6.496094 L 5.832031 -7.644531 L 5.140625 -7.644531 C 3.84375 -7.644531 3.078125 -7.230469 2.53125 -6.316406 L 2.386719 -7.644531 L 1.371094 -7.644531 Z M 1.371094 0 "/></g></g></g><g fill="#ffffff" fill-opacity="1"><g transform="translate(43.739296, 19.580612)"><g><path d="M 4.816406 0.191406 C 7.1875 0.191406 8.867188 -1.488281 8.867188 -3.828125 C 8.867188 -6.171875 7.1875 -7.835938 4.816406 -7.835938 C 2.445312 -7.835938 0.765625 -6.171875 0.765625 -3.828125 C 0.765625 -1.488281 2.445312 0.191406 4.816406 0.191406 Z M 2.003906 -3.828125 C 2.003906 -5.492188 3.167969 -6.65625 4.816406 -6.65625 C 6.464844 -6.65625 7.628906 -5.492188 7.628906 -3.828125 C 7.628906 -2.148438 6.464844 -1 4.816406 -1 C 3.167969 -1 2.003906 -2.148438 2.003906 -3.828125 Z M 2.003906 -3.828125 "/></g></g></g><g fill="#356b6b" fill-opacity="1"><g transform="translate(53.369873, 19.580612)"><g><path d="M 4.667969 0.191406 C 5.90625 0.191406 6.964844 -0.324219 7.65625 -1.179688 L 7.804688 0 L 8.820312 0 L 8.820312 -10.898438 L 7.585938 -10.898438 L 7.585938 -6.566406 C 6.890625 -7.363281 5.863281 -7.835938 4.667969 -7.835938 C 2.402344 -7.835938 0.765625 -6.140625 0.765625 -3.828125 C 0.765625 -1.503906 2.402344 0.191406 4.667969 0.191406 Z M 2.003906 -3.828125 C 2.003906 -5.480469 3.167969 -6.65625 4.816406 -6.65625 C 6.480469 -6.65625 7.628906 -5.480469 7.628906 -3.828125 C 7.628906 -2.164062 6.480469 -1 4.816406 -1 C 3.167969 -1 2.003906 -2.164062 2.003906 -3.828125 Z M 2.003906 -3.828125 "/></g></g></g><g fill="#545454" fill-opacity="1"><g transform="translate(63.559785, 19.580612)"><g><path d="M 4.667969 0 L 5.816406 0 L 5.816406 -1.191406 L 4.726562 -1.191406 C 3.710938 -1.191406 3.238281 -1.707031 3.238281 -2.8125 L 3.238281 -6.507812 L 5.714844 -6.507812 L 5.714844 -7.644531 L 3.238281 -7.644531 L 3.238281 -9.542969 L 2.28125 -9.542969 L 2.164062 -8.511719 C 2.078125 -7.820312 1.871094 -7.644531 1.164062 -7.644531 L 0.398438 -7.644531 L 0.398438 -6.507812 L 2.003906 -6.507812 L 2.003906 -2.753906 C 2.003906 -1 2.976562 0 4.667969 0 Z M 4.667969 0 "/></g></g></g><g fill="#545454" fill-opacity="1"><g transform="translate(70.098359, 19.580612)"><g><path d="M 4.816406 0.191406 C 7.1875 0.191406 8.867188 -1.488281 8.867188 -3.828125 C 8.867188 -6.171875 7.1875 -7.835938 4.816406 -7.835938 C 2.445312 -7.835938 0.765625 -6.171875 0.765625 -3.828125 C 0.765625 -1.488281 2.445312 0.191406 4.816406 0.191406 Z M 2.003906 -3.828125 C 2.003906 -5.492188 3.167969 -6.65625 4.816406 -6.65625 C 6.464844 -6.65625 7.628906 -5.492188 7.628906 -3.828125 C 7.628906 -2.148438 6.464844 -1 4.816406 -1 C 3.167969 -1 2.003906 -2.148438 2.003906 -3.828125 Z M 2.003906 -3.828125 "/></g></g></g><g fill="#545454" fill-opacity="1"><g transform="translate(79.729501, 19.580612)"><g><path d="M 4.816406 0.191406 C 7.1875 0.191406 8.867188 -1.488281 8.867188 -3.828125 C 8.867188 -6.171875 7.1875 -7.835938 4.816406 -7.835938 C 2.445312 -7.835938 0.765625 -6.171875 0.765625 -3.828125 C 0.765625 -1.488281 2.445312 0.191406 4.816406 0.191406 Z M 2.003906 -3.828125 C 2.003906 -5.492188 3.167969 -6.65625 4.816406 -6.65625 C 6.464844 -6.65625 7.628906 -5.492188 7.628906 -3.828125 C 7.628906 -2.148438 6.464844 -1 4.816406 -1 C 3.167969 -1 2.003906 -2.148438 2.003906 -3.828125 Z M 2.003906 -3.828125 "/></g></g></g><g fill="#545454" fill-opacity="1"><g transform="translate(89.360644, 19.580612)"><g><path d="M 1.371094 0 L 2.605469 0 L 2.605469 -10.898438 L 1.371094 -10.898438 Z M 1.371094 0 "/></g></g></g><g clip-path="url(#b94890bb37)"><path fill="#356b6b" d="M 53.554688 15.359375 L 53.023438 15.359375 C 52.964844 12.886719 50.992188 10.910156 48.523438 10.859375 L 48.523438 10.328125 C 48.523438 10.277344 48.480469 10.234375 48.429688 10.234375 C 48.375 10.234375 48.332031 10.277344 48.332031 10.328125 L 48.332031 10.859375 C 45.867188 10.910156 43.882812 12.894531 43.832031 15.359375 L 43.300781 15.359375 C 43.25 15.359375 43.207031 15.402344 43.207031 15.457031 C 43.207031 15.507812 43.25 15.550781 43.300781 15.550781 L 43.832031 15.550781 C 43.882812 18.019531 45.871094 20.003906 48.332031 20.050781 L 48.332031 20.582031 C 48.332031 20.636719 48.375 20.675781 48.429688 20.675781 C 48.480469 20.675781 48.523438 20.636719 48.523438 20.582031 L 48.523438 20.050781 C 50.988281 20 52.984375 18.007812 53.023438 15.550781 L 53.554688 15.550781 C 53.605469 15.550781 53.648438 15.507812 53.648438 15.457031 C 53.648438 15.402344 53.605469 15.359375 53.554688 15.359375 Z M 52.015625 15.359375 L 51.046875 15.359375 C 50.996094 13.988281 49.886719 12.871094 48.523438 12.832031 L 48.523438 11.863281 C 50.429688 11.914062 51.960938 13.445312 52.015625 15.359375 Z M 48.332031 14.769531 C 48.027344 14.808594 47.78125 15.054688 47.738281 15.359375 L 46.835938 15.359375 C 46.898438 14.558594 47.527344 13.9375 48.332031 13.886719 Z M 47.738281 15.550781 C 47.78125 15.859375 48.023438 16.097656 48.332031 16.140625 L 48.332031 17.066406 C 47.511719 17.011719 46.867188 16.359375 46.832031 15.550781 Z M 48.523438 16.140625 C 48.832031 16.101562 49.070312 15.859375 49.113281 15.550781 L 50.023438 15.550781 C 49.988281 16.359375 49.324219 17.03125 48.523438 17.070312 Z M 49.113281 15.359375 C 49.074219 15.050781 48.832031 14.808594 48.523438 14.769531 L 48.523438 13.882812 C 49.3125 13.921875 49.960938 14.566406 50.019531 15.359375 Z M 48.332031 11.863281 L 48.332031 12.835938 C 46.949219 12.898438 45.855469 13.988281 45.804688 15.359375 L 44.835938 15.359375 C 44.875 13.464844 46.433594 11.914062 48.332031 11.863281 Z M 44.839844 15.550781 L 45.808594 15.550781 C 45.859375 16.921875 46.96875 18.039062 48.332031 18.074219 L 48.332031 19.046875 C 46.421875 18.992188 44.898438 17.46875 44.839844 15.550781 Z M 48.523438 19.046875 L 48.523438 18.074219 C 49.914062 18.011719 50.996094 16.929688 51.046875 15.550781 L 52.019531 15.550781 C 51.976562 17.453125 50.421875 19 48.523438 19.046875 Z M 48.523438 19.046875 " fill-opacity="1" fill-rule="nonzero"/></g></svg>