<svg width="200" height="39" viewBox="0 0 200 39" fill="none" xmlns="http://www.w3.org/2000/svg">
<path d="M27.5788 26.733L29.3192 24.7301C29.53 24.5193 29.8455 24.7301 29.6878 24.9409L24.5726 31.9542C25.0471 36.2251 28.5279 38.2822 32.641 38.2822C36.8071 38.2822 40.8672 34.5377 40.8672 30.003V9.22678C40.8672 1.52813 31.0066 -2.16343 25.9962 4.1646L20.3547 11.231L14.8698 4.1646C9.86058 -2.16343 0 1.52813 0 9.22678V30.003C0 34.5377 4.06009 38.2822 8.2262 38.2822C12.2863 38.2822 15.8188 36.2251 16.2934 31.9542L11.1794 24.9409C10.9674 24.6771 11.3372 24.5193 11.548 24.7301L13.1824 26.733C15.4503 29.3177 17.876 31.5844 20.3017 31.5844C22.7804 31.6374 25.3639 29.3707 27.5788 26.733Z" fill="#7162DD"/>
<path d="M60.4273 38.3363C70.2349 38.3363 78.4081 30.1631 78.4081 20.3555V9.01829C78.4081 4.37764 74.5588 0.52832 70.0772 0.52832C65.3835 0.52832 61.5872 4.37764 61.5872 9.01829V19.3534C61.5872 19.9857 61.0596 20.6723 60.4273 20.6723C59.7408 20.6723 59.2662 19.9857 59.2662 19.3534V9.01829C59.2662 4.37764 55.5759 0.52832 50.9353 0.52832C46.2416 0.52832 42.4453 4.37764 42.4453 9.01829V20.3555C42.4453 30.1631 50.5655 38.3363 60.4273 38.3363Z" fill="#7162DD"/>
<path d="M93.2242 12.3395L91.4838 14.3437C91.273 14.5545 90.9562 14.3437 91.1153 14.1329L96.2822 7.06659C95.8077 2.74273 92.3281 0.685547 88.215 0.685547C83.9429 0.685547 79.8828 4.43012 79.8828 9.0695V29.9518C79.8828 37.7564 89.8494 41.448 94.8586 35.067L100.554 27.9476L106.091 35.067C111.1 41.448 121.067 37.7564 121.067 29.9518V9.0695C121.067 4.43012 117.005 0.685547 112.735 0.685547C108.674 0.685547 105.142 2.74273 104.667 7.06659L109.834 14.1329C110.045 14.3955 109.677 14.5545 109.413 14.3437L107.778 12.3395C105.457 9.70306 103.032 7.43512 100.606 7.43512C98.0756 7.38211 95.5439 9.65005 93.2242 12.3395Z" fill="#7162DD"/>
<path d="M160.189 29.6351V8.85884C160.189 4.2712 156.393 0.421875 151.699 0.421875C147.797 0.421875 144.371 3.37513 143.579 6.96068L146.69 11.4953C146.848 11.8121 146.373 12.1289 146.216 11.8121L137.621 3.37513C136.038 1.79375 133.719 0.421875 131.187 0.421875C126.546 0.421875 122.75 4.2712 122.75 8.85884V29.6351C122.75 34.3817 126.546 38.0733 131.187 38.0733C135.142 38.0733 138.57 35.3308 139.36 31.6923L136.355 27.0516C136.196 26.6831 136.671 26.2086 136.83 26.5241C139.783 29.6351 142.788 32.4836 145.899 35.4886C150.646 40.287 160.189 37.7565 160.189 29.6351Z" fill="#7162DD"/>
<path d="M180.753 0C170.312 0 161.611 8.64773 161.611 19.1949C161.611 29.7938 170.312 38.2837 180.753 38.2837C191.352 38.2837 200 29.7938 200 19.1949C200 8.64773 191.352 0 180.753 0ZM180.753 17.1907C181.86 17.1907 182.809 17.982 182.809 19.1949C182.809 20.3017 181.86 21.2508 180.753 21.2508C179.803 21.2508 178.854 20.3017 178.854 19.1949C178.854 17.982 179.803 17.1907 180.753 17.1907Z" fill="#7162DD"/>
</svg>
